<svg xmlns="http://www.w3.org/2000/svg" width="100" height="100" viewBox="0 0 100 100">
  <path id="ios_play_circle" data-name="ios play circle" d="M14.663,14.663A48.162,48.162,0,0,1,50,0,48.162,48.162,0,0,1,85.337,14.663,48.162,48.162,0,0,1,100,50,48.162,48.162,0,0,1,85.337,85.337,48.162,48.162,0,0,1,50,100,48.162,48.162,0,0,1,14.663,85.337,48.162,48.162,0,0,1,0,50,48.162,48.162,0,0,1,14.663,14.663Zm55.529,36.3q1.442-.962,0-1.923L37.26,29.087a.8.8,0,0,0-1.082-.12,1.181,1.181,0,0,0-.6,1.082v39.9a1.181,1.181,0,0,0,.6,1.082.8.8,0,0,0,1.082-.12Z" fill="#fff"/>
</svg>
